<?xml version="1.0" encoding="iso-8859-1"?>
<!-- Generator: Adobe Illustrator 21.1.0, SVG Export Plug-In . SVG Version: 6.00 Build 0)  -->
<svg xmlns="http://www.w3.org/2000/svg" xmlns:xlink="http://www.w3.org/1999/xlink" version="1.1" id="Layer_1" x="0px" y="0px" viewBox="0 0 64 64" style="enable-background:new 0 0 64 64;" xml:space="preserve">
<g>
	<circle style="fill:#85CBF8;" cx="29" cy="32" r="28"/>
	<path style="fill:#7BBEEB;" d="M29,4v56c15.464,0,28-12.536,28-28C57,16.536,44.464,4,29,4z"/>
	<polygon style="fill:#FAEFDE;" points="61.098,42.098 32.085,30.585 43.598,59.598 49.087,50.315 59.291,60.519 62.054,57.756    51.852,47.553  "/>
	<g>
		<path style="fill:#FFF7F0;" d="M61.098,42.098L61.098,42.098L32.085,30.585l0.353,0.891c0.977,2.462,2.926,4.411,5.388,5.388    l14.844,5.891C55.43,43.849,58.541,43.607,61.098,42.098z"/>
	</g>
	<g>
		<path style="fill:#8D6C9F;" d="M4,30c-0.552,0-1,0.448-1,1v2c0,0.552,0.448,1,1,1s1-0.448,1-1v-2C5,30.448,4.552,30,4,30z"/>
		<path style="fill:#8D6C9F;" d="M9,34c0.552,0,1-0.448,1-1v-2c0-0.552-0.448-1-1-1s-1,0.448-1,1v2C8,33.552,8.448,34,9,34z"/>
		<path style="fill:#8D6C9F;" d="M14,34c0.552,0,1-0.448,1-1v-2c0-0.552-0.448-1-1-1s-1,0.448-1,1v2C13,33.552,13.448,34,14,34z"/>
		<path style="fill:#8D6C9F;" d="M19,34c0.552,0,1-0.448,1-1v-2c0-0.552-0.448-1-1-1s-1,0.448-1,1v2C18,33.552,18.448,34,19,34z"/>
		<path style="fill:#8D6C9F;" d="M24,34c0.552,0,1-0.448,1-1v-2c0-0.552-0.448-1-1-1s-1,0.448-1,1v2C23,33.552,23.448,34,24,34z"/>
		<path style="fill:#8D6C9F;" d="M29,34c0.552,0,1-0.448,1-1v-2c0-0.552-0.448-1-1-1s-1,0.448-1,1v2C28,33.552,28.448,34,29,34z"/>
		<path style="fill:#8D6C9F;" d="M44,34c0.552,0,1-0.448,1-1v-2c0-0.552-0.448-1-1-1s-1,0.448-1,1v2C43,33.552,43.448,34,44,34z"/>
		<path style="fill:#8D6C9F;" d="M49,34c0.552,0,1-0.448,1-1v-2c0-0.552-0.448-1-1-1s-1,0.448-1,1v2C48,33.552,48.448,34,49,34z"/>
		<path style="fill:#8D6C9F;" d="M54,34c0.552,0,1-0.448,1-1v-2c0-0.552-0.448-1-1-1s-1,0.448-1,1v2C53,33.552,53.448,34,54,34z"/>
		<path style="fill:#8D6C9F;" d="M62.76,57.05l-9.29-9.29l8.14-4.8c0.32-0.19,0.51-0.56,0.48-0.94c-0.03-0.38-0.27-0.71-0.62-0.85    l-4.43-1.76C57.67,37.05,58,34.56,58,32c0-6.726-2.308-12.919-6.165-17.843c-0.001-0.001-0.001-0.003-0.002-0.004    c-0.003-0.004-0.007-0.006-0.01-0.01C46.511,7.367,38.258,3,29,3C19.76,3,11.521,7.35,6.207,14.103    c-0.013,0.018-0.033,0.028-0.045,0.047c-0.004,0.006-0.004,0.014-0.008,0.02C2.304,19.092,0,25.281,0,32    c0,6.709,2.297,12.888,6.136,17.807c0.011,0.02,0.011,0.043,0.024,0.063c0.055,0.087,0.125,0.159,0.201,0.222    C11.679,56.734,19.849,61,29,61c4.63,0,9-1.09,12.88-3.02l0.79,1.99c0.14,0.35,0.47,0.59,0.85,0.62c0.38,0.03,0.74-0.15,0.94-0.48    l3.82-6.47l1.01-1.71l0.39,0.39l8.9,8.91c0.19,0.18,0.45,0.29,0.71,0.29c0.27,0,0.52-0.11,0.71-0.29l2.76-2.77    C63.15,58.07,63.15,57.44,62.76,57.05z M49.475,14.428c-1.948,1.103-4.214,2.022-6.7,2.745c-1.591-4.867-3.939-8.768-6.734-11.236    C41.341,7.37,45.995,10.378,49.475,14.428z M28,5.089v13.916c-3.813-0.068-7.481-0.518-10.817-1.312    C19.538,10.597,23.554,5.731,28,5.089z M30,5.089c4.446,0.642,8.462,5.508,10.817,12.604c-3.335,0.794-7.004,1.244-10.817,1.312    V5.089z M21.959,5.937c-2.795,2.468-5.143,6.369-6.734,11.236c-2.486-0.723-4.752-1.642-6.7-2.745    C12.005,10.378,16.659,7.37,21.959,5.937z M7.264,16.004c2.14,1.245,4.639,2.281,7.391,3.082c-0.66,2.421-1.144,5.041-1.412,7.817    c-0.053,0.55,0.35,1.039,0.899,1.092c0.558,0.052,1.039-0.35,1.092-0.899c0.257-2.658,0.733-5.166,1.371-7.488    c3.522,0.849,7.387,1.329,11.395,1.398V27c0,0.552,0.448,1,1,1s1-0.448,1-1v-5.995c4.007-0.069,7.873-0.549,11.395-1.398    c0.638,2.323,1.115,4.832,1.371,7.492c0.05,0.517,0.485,0.904,0.995,0.904c0.032,0,0.064-0.001,0.097-0.004    c0.55-0.053,0.952-0.542,0.899-1.092c-0.268-2.778-0.752-5.399-1.412-7.821c2.753-0.801,5.251-1.836,7.391-3.082    C54.041,20.484,56,26.016,56,32c0,2.3-0.29,4.54-0.83,6.67L40,32.647V31c0-0.552-0.448-1-1-1s-1,0.448-1,1v0.853l-5.55-2.203    c-0.37-0.14-0.79-0.05-1.07,0.23c-0.28,0.28-0.37,0.7-0.23,1.07l4.97,12.5c-1.981-0.258-4.037-0.383-6.12-0.419V37    c0-0.552-0.448-1-1-1s-1,0.448-1,1v6.014c-4.006,0.069-7.87,0.548-11.391,1.397c-0.642-2.328-1.121-4.844-1.379-7.511    c-0.05-0.54-0.53-0.95-1.09-0.89c-0.55,0.05-0.95,0.54-0.9,1.09c0.269,2.782,0.755,5.408,1.418,7.833    c-2.749,0.8-5.245,1.833-7.384,3.077C3.962,43.527,2,37.989,2,32C2,26.016,3.958,20.484,7.264,16.004z M39,50.72    c-2.345,4.662-5.548,7.701-9,8.199V45.018c2.391,0.043,4.731,0.229,6.96,0.572L39,50.72z M28,58.911    c-4.441-0.642-8.454-5.499-10.811-12.585c3.334-0.794,7-1.244,10.811-1.312V58.911z M8.536,49.585    c1.948-1.1,4.212-2.017,6.694-2.738c1.591,4.858,3.938,8.752,6.729,11.216C16.665,56.632,12.015,53.628,8.536,49.585z     M36.053,58.051c1.437-1.273,2.758-2.92,3.917-4.891l1.17,2.94C39.532,56.919,37.826,57.569,36.053,58.051z M59.29,59.1    l-8.27-8.26l-1.23-1.23c-0.06-0.07-0.14-0.12-0.22-0.17c-0.14-0.08-0.31-0.13-0.48-0.13c-0.04,0-0.09,0.01-0.13,0.01    c-0.31,0.04-0.58,0.22-0.73,0.49l-1.48,2.5l-2.63,4.43l-0.35,0.59l-0.12-0.31l-0.75-1.89l-1.7-4.29l-1.05-2.66L39.28,46l-0.88-2.2    l-4.53-11.43l9.45,3.75l1.37,0.54l9.9,3.93l1.86,0.74l2.38,0.94l-3.62,2.14l-3.4,2l-0.47,0.28c-0.26,0.16-0.44,0.43-0.48,0.74    c-0.02,0.12-0.01,0.24,0.02,0.35c0.04,0.18,0.13,0.35,0.26,0.48l0.81,0.81l0.01,0.02l8.68,8.67L59.29,59.1z"/>
	</g>
</g>
</svg>
